<?xml version="1.0" standalone="no"?>
<!DOCTYPE svg PUBLIC "-//W3C//DTD SVG 20010904//EN"
 "http://www.w3.org/TR/2001/REC-SVG-20010904/DTD/svg10.dtd">
<svg version="1.0" xmlns="http://www.w3.org/2000/svg"
 width="560.000000pt" height="560.000000pt" viewBox="0 0 560.000000 560.000000"
 preserveAspectRatio="xMidYMid meet">
<metadata>
Created by potrace 1.11, written by Peter Selinger 2001-2013
</metadata>
<g transform="translate(0.000000,560.000000) scale(0.100000,-0.100000)"
fill="#000000" stroke="none">
<path d="M2757 5477 c-10 -7 -52 -68 -95 -137 -71 -115 -79 -124 -111 -128
-30 -3 -39 2 -83 50 -28 29 -72 77 -99 106 -27 29 -61 57 -76 63 -33 12 -76
-3 -91 -34 -16 -31 -62 -149 -62 -158 0 -3 -8 -24 -17 -45 -17 -39 -19 -47
-22 -63 0 -5 -17 -12 -36 -15 -34 -7 -84 16 -126 56 -40 38 -157 108 -181 108
-44 0 -77 -37 -83 -95 -3 -27 -7 -61 -10 -75 -3 -14 -8 -41 -11 -60 -3 -19 -8
-46 -10 -60 -3 -14 -6 -30 -6 -36 -1 -7 -17 -19 -35 -28 -31 -15 -36 -15 -66
1 -18 9 -34 18 -37 18 -7 2 -89 39 -140 64 -62 30 -103 28 -130 -6 -20 -26
-21 -36 -17 -180 l4 -154 -28 -20 -29 -20 -124 30 c-154 38 -174 39 -209 17
-37 -25 -39 -47 -13 -161 10 -44 18 -81 18 -82 -1 -2 4 -20 11 -40 7 -21 12
-44 11 -50 -1 -7 -2 -17 -3 -21 0 -5 -9 -19 -20 -30 -17 -20 -25 -21 -131 -17
-62 3 -117 8 -121 11 -5 3 -9 1 -9 -4 0 -5 -15 -8 -33 -6 -41 5 -76 -27 -78
-71 -1 -18 23 -82 58 -159 58 -127 59 -129 44 -161 -14 -29 -23 -34 -66 -41
-27 -4 -52 -8 -55 -9 -3 -1 -45 -7 -93 -14 -64 -10 -96 -20 -114 -36 -45 -38
-36 -68 60 -203 48 -67 87 -126 87 -132 0 -5 -5 -20 -11 -33 -11 -25 -38 -39
-154 -80 -138 -49 -152 -59 -160 -110 -6 -36 10 -54 178 -210 40 -37 47 -50
45 -77 -2 -25 -11 -38 -45 -61 -23 -16 -45 -29 -49 -29 -4 0 -21 -10 -38 -23
-17 -12 -43 -29 -59 -37 -15 -7 -41 -26 -59 -41 -27 -25 -30 -33 -25 -65 6
-38 23 -58 69 -84 88 -49 189 -114 195 -123 4 -7 8 -25 9 -41 2 -25 -8 -40
-68 -95 -126 -116 -138 -129 -148 -156 -13 -34 -4 -66 23 -85 12 -9 76 -36
142 -60 66 -23 125 -47 132 -52 6 -5 14 -22 18 -38 5 -22 -2 -40 -40 -91 -113
-158 -128 -183 -127 -212 1 -42 32 -68 89 -78 26 -4 64 -10 83 -14 19 -4 46
-9 60 -11 35 -6 2471 -6 2477 -1 7 8 6 568 -2 575 -4 4 -110 7 -235 7 -126 1
-232 4 -236 8 -8 8 -8 356 0 365 3 3 111 5 239 5 190 -1 241 -4 282 -18 137
-46 212 -156 249 -365 13 -76 19 -103 52 -245 30 -131 77 -219 157 -296 l46
-43 823 -1 c833 0 843 0 1024 36 44 8 54 15 67 41 8 17 14 40 12 50 -3 16 -60
104 -76 118 -3 3 -27 36 -53 73 -39 57 -46 74 -41 98 5 22 16 34 43 46 21 8
50 21 65 29 16 8 34 14 41 14 19 0 139 50 153 64 18 16 22 69 9 92 -6 11 -40
46 -76 79 -136 126 -141 132 -137 167 3 29 14 39 111 100 59 37 112 68 116 68
14 0 50 51 50 71 0 35 -21 64 -70 97 -28 17 -54 32 -60 32 -5 0 -10 3 -10 8 0
4 -24 20 -53 36 -73 41 -87 55 -87 90 0 27 15 46 106 131 113 105 129 130 114
170 -13 34 -52 56 -189 104 -110 39 -117 43 -127 75 -10 31 -7 37 63 132 83
112 113 167 106 195 -9 35 -50 56 -130 68 -43 7 -87 14 -98 16 -11 2 -41 7
-66 10 -40 6 -49 12 -62 40 -15 32 -15 36 7 82 60 126 96 212 96 232 0 59 -40
85 -125 82 -235 -10 -228 -11 -252 16 -25 26 -25 27 2 138 9 39 19 79 21 90 2
11 8 36 12 55 11 44 -2 84 -31 99 -28 15 -59 20 -72 12 -5 -3 -18 -7 -27 -8
-9 -2 -65 -14 -123 -28 -59 -14 -108 -25 -109 -25 -2 0 -14 9 -27 21 -23 20
-24 24 -24 181 0 156 -1 160 -24 179 -31 26 -71 24 -125 -5 -26 -14 -46 -23
-46 -21 0 2 -37 -14 -82 -35 -80 -37 -82 -38 -115 -22 -18 9 -33 20 -34 26 -1
19 -9 70 -19 121 -5 28 -12 70 -15 94 -4 23 -10 54 -16 67 -10 27 -64 55 -88
46 -9 -3 -69 -43 -134 -90 -106 -76 -121 -83 -151 -78 -29 6 -36 13 -51 54
-93 248 -94 250 -129 262 -18 6 -42 7 -52 3 -19 -7 -30 -17 -156 -152 -56 -60
-73 -72 -95 -70 -38 4 -48 13 -83 73 -71 118 -111 178 -129 193 -21 16 -63 16
-84 0z m96 -495 c53 -24 75 -49 91 -104 37 -123 -75 -239 -201 -206 -48 12
-76 35 -102 84 -75 139 67 291 212 226z m414 -277 c43 -7 180 -49 268 -83 71
-27 315 -147 325 -160 3 -4 17 -13 32 -21 100 -51 362 -282 473 -414 57 -68
161 -215 186 -263 l22 -41 -47 -104 c-26 -57 -48 -108 -50 -114 -1 -5 -12 -29
-24 -52 -12 -24 -20 -43 -18 -43 2 0 -11 -31 -29 -68 -18 -37 -35 -84 -38
-104 -5 -40 18 -103 49 -130 10 -9 100 -52 199 -96 99 -43 192 -85 206 -93
l25 -14 0 -170 c0 -93 -4 -172 -8 -175 -4 -3 -54 -5 -111 -4 -58 1 -109 -1
-115 -5 -6 -3 -13 -57 -16 -118 -7 -164 -38 -222 -140 -269 -97 -44 -238 -28
-304 34 -22 22 -33 49 -56 142 -48 200 -112 305 -266 433 -25 21 -40 40 -34
43 27 12 149 110 207 167 76 74 106 114 142 185 63 125 72 204 42 362 -10 51
-56 149 -94 202 -114 154 -259 251 -468 314 l-90 28 -1120 2 c-616 1 -1127 3
-1134 3 -22 1 227 241 250 241 5 0 9 4 9 8 0 8 223 162 234 162 2 0 30 15 63
33 139 78 394 170 538 193 l38 6 146 -150 c123 -127 152 -151 184 -157 73 -14
99 -1 209 104 235 224 217 210 252 200 17 -4 46 -11 63 -14z m-2375 -1243 c88
-57 97 -189 18 -259 -53 -47 -153 -54 -209 -13 -29 20 -59 72 -67 116 -11 59
32 137 92 169 42 23 121 17 166 -13z m3941 9 c54 -21 106 -95 102 -146 -1 -11
-2 -32 -3 -47 -2 -28 -50 -91 -82 -108 -33 -18 -105 -21 -141 -6 -90 38 -133
156 -84 234 25 39 65 72 94 78 14 3 31 7 36 8 13 4 49 -2 78 -13z m-3372 -20
c3 0 5 -293 5 -650 0 -580 -1 -650 -15 -653 -9 -2 -171 -3 -361 -3 l-345 0 0
388 -1 387 31 19 c17 10 44 21 60 25 16 4 32 11 35 15 3 3 62 31 131 60 144
62 159 72 186 127 27 52 22 86 -25 192 -22 50 -39 92 -37 94 3 3 321 2 336 -1z
m1618 -20 c11 -7 21 -9 21 -6 0 10 94 -44 123 -70 15 -13 34 -42 41 -62 37
-107 -33 -190 -194 -231 -20 -5 -612 -9 -627 -4 -13 4 -16 373 -3 382 17 11
617 2 639 -9z"/>
<path d="M748 1306 c0 -1 -2 -272 -3 -604 l-2 -602 361 2 361 3 1 117 2 118
-32 1 c-17 0 -125 1 -241 2 l-210 2 -1 475 c-1 261 -2 477 -3 480 -1 4 -224
10 -233 6z"/>
<path d="M1710 1236 c-1 -75 -1 -501 0 -597 l0 -56 120 0 120 0 0 363 0 362
-120 -1 -120 0 0 -71z"/>
<path d="M2203 1303 c-10 -4 -13 -133 -13 -604 l0 -599 120 0 120 0 1 63 c0
34 1 250 1 480 0 229 4 418 7 418 3 1 58 2 121 3 l115 2 0 -360 0 -361 85 -2
c47 -1 101 -2 120 -2 l35 -1 0 -117 0 -118 240 -3 241 -2 0 603 0 603 -115 -2
c-64 -1 -118 -2 -121 -3 -3 0 -5 -217 -5 -481 l0 -480 -120 2 -120 3 0 360 -1
360 -111 0 c-62 1 -116 4 -120 9 -4 4 -8 58 -9 119 l0 112 -230 1 c-126 0
-235 -1 -241 -3z"/>
<path d="M3639 1276 c-3 -83 0 -196 4 -203 3 -5 216 -8 474 -7 257 0 473 -3
478 -7 8 -6 12 -194 6 -229 -1 -3 -159 -5 -352 -5 -193 0 -355 -2 -359 -5 -8
-5 -13 -101 -11 -201 l1 -36 362 1 363 1 0 120 0 120 120 0 120 -1 0 241 0
240 -602 1 -603 0 -1 -30z"/>
<path d="M3657 582 c-9 -2 -17 -9 -18 -15 0 -10 0 -139 1 -197 0 -8 0 -60 -1
-115 0 -55 0 -112 0 -128 l1 -27 603 2 602 3 0 117 c0 72 -4 118 -10 119 -5 0
-223 0 -482 0 l-473 1 -1 41 c0 23 -1 78 -2 121 l-2 79 -101 1 c-55 1 -108 0
-117 -2z"/>
<path d="M1710 220 l0 -120 120 0 120 0 0 120 0 120 -120 0 -120 0 0 -120z"/>
</g>
</svg>
